<?xml version="1.0" standalone="no"?>
<!DOCTYPE svg PUBLIC "-//W3C//DTD SVG 20010904//EN"
 "http://www.w3.org/TR/2001/REC-SVG-20010904/DTD/svg10.dtd">
<svg version="1.0" xmlns="http://www.w3.org/2000/svg"
 width="339.000000pt" height="313.000000pt" viewBox="0 0 339.000000 313.000000"
 preserveAspectRatio="xMidYMid meet">

<g transform="translate(0.000000,313.000000) scale(0.100000,-0.100000)"
fill="#000000" stroke="none">
<path d="M1380 2948 c-66 -18 -119 -95 -104 -153 4 -17 -68 -88 -421 -413
l-426 -392 -48 1 c-65 2 -107 -22 -133 -75 -15 -32 -19 -53 -14 -80 9 -45 57
-103 94 -111 27 -5 29 -12 146 -457 117 -445 118 -451 102 -485 -9 -18 -16
-54 -16 -80 0 -39 5 -50 39 -84 35 -35 44 -39 89 -39 28 0 63 7 79 16 27 16
38 13 533 -149 l505 -166 20 -37 c28 -53 62 -74 117 -76 86 -1 138 51 138 140
l0 50 363 339 c331 310 365 339 387 331 56 -21 135 17 162 79 33 76 0 158 -76
183 l-33 11 -43 207 c-23 114 -70 342 -104 507 l-62 299 23 35 c43 63 24 152
-40 191 -35 22 -93 26 -130 9 -20 -9 -97 12 -500 137 -453 141 -477 150 -482
174 -8 35 -50 78 -83 86 -15 3 -31 7 -37 8 -5 2 -26 -1 -45 -6z m68 -84 c24
-16 29 -53 12 -85 -15 -28 -74 -26 -94 3 -22 31 -20 45 9 73 28 29 42 31 73 9z
m1002 -411 c0 -13 -3 -23 -6 -23 -3 0 -192 -50 -421 -111 l-415 -111 -19 21
c-11 11 -32 27 -48 35 l-28 15 -17 203 -18 203 32 36 32 35 454 -140 c422
-131 454 -143 454 -163z m-1052 221 c2 -1 12 -94 22 -206 14 -153 16 -204 7
-207 -23 -8 -66 -62 -72 -90 l-6 -28 -425 -107 c-234 -59 -428 -106 -430 -103
-6 6 12 23 465 440 l364 335 36 -16 c20 -9 37 -17 39 -18z m1228 -209 c25 -26
26 -52 2 -82 -13 -16 -70 -17 -86 -1 -21 21 -15 75 10 92 31 22 45 20 74 -9z
m-256 -559 l-142 -394 -37 -6 c-36 -6 -37 -5 -161 124 -439 456 -420 434 -412
465 5 16 15 32 23 37 7 5 196 58 418 117 l405 108 24 -29 25 -29 -143 -393z
m335 -126 l101 -489 -29 -29 -28 -28 -203 54 -204 55 -5 40 c-3 22 -14 52 -24
66 l-19 26 118 315 c166 443 180 480 187 480 3 0 51 -220 106 -490z m-1171
387 c19 -26 19 -30 5 -55 -16 -29 -37 -37 -74 -28 -44 11 -45 88 -2 106 32 13
47 8 71 -23z m-259 -379 c-180 -386 -163 -357 -223 -377 l-52 -18 -255 199
-254 198 11 30 c5 17 11 30 11 30 1 0 193 49 427 109 359 92 427 107 439 95
12 -11 -2 -49 -104 -266z m506 -10 c327 -338 312 -321 298 -352 -7 -14 -20
-26 -29 -26 -9 0 -193 -16 -410 -35 -217 -19 -401 -35 -411 -35 -9 0 -24 11
-32 24 -16 23 -11 35 130 335 142 302 146 310 177 314 17 2 36 5 42 5 6 1 112
-103 235 -230z m-1371 122 c24 -24 26 -63 4 -84 -33 -34 -104 -8 -104 38 0 26
9 39 35 54 29 16 42 15 65 -8z m351 -418 l195 -152 -4 -36 c-3 -20 1 -53 8
-74 l13 -38 -114 -163 -114 -164 -43 -3 c-23 -2 -42 -1 -42 2 0 2 -47 186
-104 408 -57 221 -107 418 -111 437 l-7 35 63 -50 c35 -27 152 -118 260 -202z
m1481 -69 c37 -33 11 -103 -39 -103 -12 0 -32 9 -43 20 -55 55 24 135 82 83z
m-1117 -93 c23 -25 23 -70 -1 -87 -59 -43 -128 24 -83 80 24 32 59 35 84 7z
m967 -30 c9 -17 30 -35 45 -42 15 -7 30 -13 31 -14 3 -2 -217 -785 -222 -791
-1 -1 -16 -4 -33 -5 -30 -3 -49 17 -371 381 -312 354 -339 387 -329 408 5 13
15 23 21 24 6 0 173 15 371 33 198 19 385 34 415 35 51 1 56 -1 72 -29z m430
-76 c111 -30 203 -56 204 -57 0 -1 6 -17 12 -34 l11 -33 -356 -332 c-195 -183
-360 -335 -366 -337 -5 -2 -8 3 -5 10 3 8 56 192 118 409 113 397 125 429 167
430 7 0 104 -25 215 -56z m392 -16 c9 -12 16 -30 16 -40 0 -24 -35 -58 -60
-58 -26 0 -60 34 -60 62 0 53 74 79 104 36z m-1423 -438 c210 -238 336 -387
330 -393 -6 -6 -196 53 -500 154 l-491 164 0 30 c0 16 -7 43 -15 58 -14 28
-13 30 105 200 l119 172 56 -1 57 0 339 -384z m-751 -10 c18 -34 8 -73 -22
-90 -32 -17 -54 -8 -77 32 -13 23 -13 29 2 52 22 34 80 37 97 6z m1256 -415
c34 -52 -29 -115 -81 -81 -31 20 -36 79 -7 95 32 19 70 13 88 -14z"/>
</g>
</svg>
